<svg width="48" height="14" viewBox="0 0 48 14" fill="none" xmlns="http://www.w3.org/2000/svg">
<path d="M0.584 13V0.309999H2.078V5.926H9.728V0.309999H11.204V13H9.728V7.204H2.078V13H0.584ZM17.9113 13.162C17.0473 13.162 16.2913 12.976 15.6433 12.604C15.0073 12.22 14.5153 11.68 14.1673 10.984C13.8193 10.276 13.6453 9.442 13.6453 8.482C13.6453 7.51 13.8193 6.676 14.1673 5.98C14.5153 5.284 15.0073 4.75 15.6433 4.378C16.2913 3.994 17.0473 3.802 17.9113 3.802C18.7873 3.802 19.5433 3.994 20.1793 4.378C20.8273 4.75 21.3253 5.284 21.6733 5.98C22.0333 6.676 22.2133 7.51 22.2133 8.482C22.2133 9.442 22.0333 10.276 21.6733 10.984C21.3253 11.68 20.8273 12.22 20.1793 12.604C19.5433 12.976 18.7873 13.162 17.9113 13.162ZM17.9113 11.974C18.7753 11.974 19.4593 11.68 19.9633 11.092C20.4673 10.492 20.7193 9.622 20.7193 8.482C20.7193 7.33 20.4613 6.46 19.9453 5.872C19.4413 5.272 18.7633 4.972 17.9113 4.972C17.0593 4.972 16.3813 5.272 15.8773 5.872C15.3733 6.46 15.1213 7.33 15.1213 8.482C15.1213 9.622 15.3733 10.492 15.8773 11.092C16.3813 11.68 17.0593 11.974 17.9113 11.974ZM24.4865 13V6.052C24.4865 5.716 24.4685 5.374 24.4325 5.026C24.4085 4.666 24.3785 4.312 24.3425 3.964H25.7465L25.9265 5.944H25.7105C25.9505 5.26 26.3285 4.732 26.8445 4.36C27.3725 3.988 28.0085 3.802 28.7525 3.802C29.5085 3.802 30.1205 3.982 30.5885 4.342C31.0685 4.702 31.3925 5.26 31.5605 6.016H31.2905C31.5185 5.332 31.9205 4.792 32.4965 4.396C33.0725 4 33.7445 3.802 34.5125 3.802C35.5085 3.802 36.2585 4.09 36.7625 4.666C37.2665 5.23 37.5185 6.124 37.5185 7.348V13H36.0605V7.438C36.0605 6.586 35.9105 5.968 35.6105 5.584C35.3105 5.188 34.8305 4.99 34.1705 4.99C33.4145 4.99 32.8145 5.254 32.3705 5.782C31.9385 6.298 31.7225 6.994 31.7225 7.87V13H30.2645V7.438C30.2645 6.586 30.1145 5.968 29.8145 5.584C29.5145 5.188 29.0345 4.99 28.3745 4.99C27.6185 4.99 27.0245 5.254 26.5925 5.782C26.1605 6.298 25.9445 6.994 25.9445 7.87V13H24.4865ZM44.3032 13.162C42.8872 13.162 41.7712 12.754 40.9552 11.938C40.1392 11.11 39.7312 9.964 39.7312 8.5C39.7312 7.552 39.9112 6.73 40.2712 6.034C40.6312 5.326 41.1352 4.78 41.7832 4.396C42.4312 4 43.1752 3.802 44.0152 3.802C44.8432 3.802 45.5392 3.976 46.1032 4.324C46.6672 4.672 47.0992 5.17 47.3992 5.818C47.6992 6.454 47.8492 7.21 47.8492 8.086V8.626H40.8472V7.708H46.8952L46.5892 7.942C46.5892 6.982 46.3732 6.232 45.9412 5.692C45.5092 5.152 44.8672 4.882 44.0152 4.882C43.1152 4.882 42.4132 5.2 41.9092 5.836C41.4052 6.46 41.1532 7.306 41.1532 8.374V8.536C41.1532 9.664 41.4292 10.522 41.9812 11.11C42.5452 11.686 43.3312 11.974 44.3392 11.974C44.8792 11.974 45.3832 11.896 45.8512 11.74C46.3312 11.572 46.7872 11.302 47.2192 10.93L47.7232 11.956C47.3272 12.34 46.8232 12.64 46.2112 12.856C45.6112 13.06 44.9752 13.162 44.3032 13.162Z" fill="#1F1534"/>
</svg>
