<svg width="75" height="15" viewBox="0 0 75 15" fill="none" xmlns="http://www.w3.org/2000/svg">
<path d="M0.324 14L5.922 1.31H7.218L12.906 14H11.358L9.774 10.382L10.44 10.76H2.682L3.402 10.382L1.854 14H0.324ZM6.552 3.02L3.636 9.86L3.204 9.536H9.9L9.576 9.86L6.588 3.02H6.552ZM19.1943 14.162C18.3783 14.162 17.6763 13.958 17.0883 13.55C16.5003 13.13 16.1043 12.56 15.9003 11.84H16.0983V14H14.6583V0.751999H16.1163V7.07H15.9003C16.1043 6.374 16.5003 5.822 17.0883 5.414C17.6763 5.006 18.3783 4.802 19.1943 4.802C20.0103 4.802 20.7123 4.994 21.3003 5.378C21.9003 5.75 22.3623 6.284 22.6863 6.98C23.0223 7.676 23.1903 8.51 23.1903 9.482C23.1903 10.454 23.0223 11.288 22.6863 11.984C22.3503 12.68 21.8823 13.22 21.2823 13.604C20.6943 13.976 19.9983 14.162 19.1943 14.162ZM18.8883 12.974C19.7403 12.974 20.4243 12.68 20.9403 12.092C21.4563 11.504 21.7143 10.634 21.7143 9.482C21.7143 8.33 21.4563 7.46 20.9403 6.872C20.4243 6.272 19.7403 5.972 18.8883 5.972C18.0363 5.972 17.3523 6.272 16.8363 6.872C16.3323 7.46 16.0803 8.33 16.0803 9.482C16.0803 10.622 16.3323 11.492 16.8363 12.092C17.3523 12.68 18.0363 12.974 18.8883 12.974ZM29.1593 14.162C28.2953 14.162 27.5393 13.976 26.8913 13.604C26.2553 13.22 25.7633 12.68 25.4153 11.984C25.0673 11.276 24.8933 10.442 24.8933 9.482C24.8933 8.51 25.0673 7.676 25.4153 6.98C25.7633 6.284 26.2553 5.75 26.8913 5.378C27.5393 4.994 28.2953 4.802 29.1593 4.802C30.0353 4.802 30.7913 4.994 31.4273 5.378C32.0753 5.75 32.5733 6.284 32.9213 6.98C33.2813 7.676 33.4613 8.51 33.4613 9.482C33.4613 10.442 33.2813 11.276 32.9213 11.984C32.5733 12.68 32.0753 13.22 31.4273 13.604C30.7913 13.976 30.0353 14.162 29.1593 14.162ZM29.1593 12.974C30.0233 12.974 30.7073 12.68 31.2113 12.092C31.7153 11.492 31.9673 10.622 31.9673 9.482C31.9673 8.33 31.7093 7.46 31.1933 6.872C30.6893 6.272 30.0113 5.972 29.1593 5.972C28.3073 5.972 27.6293 6.272 27.1253 6.872C26.6213 7.46 26.3693 8.33 26.3693 9.482C26.3693 10.622 26.6213 11.492 27.1253 12.092C27.6293 12.68 28.3073 12.974 29.1593 12.974ZM38.9205 14.162C37.8525 14.162 37.0425 13.868 36.4905 13.28C35.9505 12.692 35.6805 11.792 35.6805 10.58V4.964H37.1385V10.544C37.1385 11.372 37.3065 11.984 37.6425 12.38C37.9785 12.764 38.5005 12.956 39.2085 12.956C40.0005 12.956 40.6365 12.698 41.1165 12.182C41.5965 11.666 41.8365 10.976 41.8365 10.112V4.964H43.2945V14H41.8725V11.966H42.1065C41.8545 12.662 41.4465 13.202 40.8825 13.586C40.3305 13.97 39.6765 14.162 38.9205 14.162ZM49.3272 14.162C48.4392 14.162 47.7612 13.91 47.2932 13.406C46.8252 12.89 46.5912 12.116 46.5912 11.084V6.098H44.8272V4.964H46.5912V2.498L48.0492 2.084V4.964H50.6412V6.098H48.0492V10.922C48.0492 11.642 48.1692 12.158 48.4092 12.47C48.6612 12.77 49.0332 12.92 49.5252 12.92C49.7532 12.92 49.9572 12.902 50.1372 12.866C50.3172 12.818 50.4792 12.764 50.6232 12.704V13.928C50.4552 14 50.2512 14.054 50.0112 14.09C49.7832 14.138 49.5552 14.162 49.3272 14.162ZM60.2955 14.162C59.2275 14.162 58.4175 13.868 57.8655 13.28C57.3255 12.692 57.0555 11.792 57.0555 10.58V4.964H58.5135V10.544C58.5135 11.372 58.6815 11.984 59.0175 12.38C59.3535 12.764 59.8755 12.956 60.5835 12.956C61.3755 12.956 62.0115 12.698 62.4915 12.182C62.9715 11.666 63.2115 10.976 63.2115 10.112V4.964H64.6695V14H63.2475V11.966H63.4815C63.2295 12.662 62.8215 13.202 62.2575 13.586C61.7055 13.97 61.0515 14.162 60.2955 14.162ZM70.5042 14.162C69.7842 14.162 69.1122 14.066 68.4882 13.874C67.8642 13.67 67.3482 13.388 66.9402 13.028L67.4442 12.002C67.8882 12.35 68.3682 12.608 68.8842 12.776C69.4122 12.944 69.9582 13.028 70.5222 13.028C71.2422 13.028 71.7822 12.902 72.1422 12.65C72.5142 12.386 72.7002 12.026 72.7002 11.57C72.7002 11.222 72.5802 10.946 72.3402 10.742C72.1122 10.526 71.7342 10.358 71.2062 10.238L69.5322 9.896C68.7642 9.728 68.1882 9.446 67.8042 9.05C67.4202 8.642 67.2282 8.126 67.2282 7.502C67.2282 6.974 67.3662 6.512 67.6422 6.116C67.9182 5.708 68.3202 5.39 68.8482 5.162C69.3762 4.922 69.9942 4.802 70.7022 4.802C71.3622 4.802 71.9682 4.904 72.5202 5.108C73.0842 5.3 73.5522 5.582 73.9242 5.954L73.4022 6.962C73.0422 6.614 72.6282 6.356 72.1602 6.188C71.7042 6.008 71.2302 5.918 70.7382 5.918C70.0302 5.918 69.4962 6.062 69.1362 6.35C68.7882 6.626 68.6142 6.992 68.6142 7.448C68.6142 7.796 68.7222 8.084 68.9382 8.312C69.1662 8.528 69.5142 8.69 69.9822 8.798L71.6562 9.14C72.4722 9.32 73.0782 9.602 73.4742 9.986C73.8822 10.358 74.0862 10.862 74.0862 11.498C74.0862 12.038 73.9362 12.512 73.6362 12.92C73.3362 13.316 72.9162 13.622 72.3762 13.838C71.8482 14.054 71.2242 14.162 70.5042 14.162Z" fill="#1F1534"/>
</svg>
