<svg width="43" height="17" viewBox="0 0 43 17" fill="none" xmlns="http://www.w3.org/2000/svg">
<path d="M0.324 13L5.922 0.309999H7.218L12.906 13H11.358L9.774 9.382L10.44 9.76H2.682L3.402 9.382L1.854 13H0.324ZM6.552 2.02L3.636 8.86L3.204 8.536H9.9L9.576 8.86L6.588 2.02H6.552ZM14.6583 16.888V6.052C14.6583 5.716 14.6403 5.374 14.6043 5.026C14.5803 4.666 14.5503 4.312 14.5143 3.964H15.9183L16.1163 6.106H15.9003C16.0923 5.398 16.4823 4.84 17.0703 4.432C17.6583 4.012 18.3603 3.802 19.1763 3.802C19.9923 3.802 20.6943 3.988 21.2823 4.36C21.8823 4.732 22.3503 5.266 22.6863 5.962C23.0223 6.658 23.1903 7.498 23.1903 8.482C23.1903 9.454 23.0223 10.288 22.6863 10.984C22.3623 11.68 21.9003 12.22 21.3003 12.604C20.7003 12.976 19.9923 13.162 19.1763 13.162C18.3723 13.162 17.6763 12.958 17.0883 12.55C16.5003 12.142 16.1103 11.584 15.9183 10.876H16.1163V16.888H14.6583ZM18.8883 11.974C19.7523 11.974 20.4363 11.68 20.9403 11.092C21.4563 10.492 21.7143 9.622 21.7143 8.482C21.7143 7.33 21.4563 6.46 20.9403 5.872C20.4363 5.272 19.7523 4.972 18.8883 4.972C18.0363 4.972 17.3523 5.272 16.8363 5.872C16.3323 6.46 16.0803 7.33 16.0803 8.482C16.0803 9.622 16.3323 10.492 16.8363 11.092C17.3523 11.68 18.0363 11.974 18.8883 11.974ZM25.4513 16.888V6.052C25.4513 5.716 25.4333 5.374 25.3973 5.026C25.3733 4.666 25.3433 4.312 25.3073 3.964H26.7113L26.9093 6.106H26.6933C26.8853 5.398 27.2753 4.84 27.8633 4.432C28.4513 4.012 29.1533 3.802 29.9693 3.802C30.7853 3.802 31.4873 3.988 32.0753 4.36C32.6753 4.732 33.1433 5.266 33.4793 5.962C33.8153 6.658 33.9833 7.498 33.9833 8.482C33.9833 9.454 33.8153 10.288 33.4793 10.984C33.1553 11.68 32.6933 12.22 32.0933 12.604C31.4933 12.976 30.7853 13.162 29.9693 13.162C29.1653 13.162 28.4693 12.958 27.8813 12.55C27.2933 12.142 26.9033 11.584 26.7113 10.876H26.9093V16.888H25.4513ZM29.6813 11.974C30.5453 11.974 31.2293 11.68 31.7333 11.092C32.2493 10.492 32.5073 9.622 32.5073 8.482C32.5073 7.33 32.2493 6.46 31.7333 5.872C31.2293 5.272 30.5453 4.972 29.6813 4.972C28.8293 4.972 28.1453 5.272 27.6293 5.872C27.1253 6.46 26.8733 7.33 26.8733 8.482C26.8733 9.622 27.1253 10.492 27.6293 11.092C28.1453 11.68 28.8293 11.974 29.6813 11.974ZM39.2503 13.162C38.5303 13.162 37.8583 13.066 37.2343 12.874C36.6103 12.67 36.0943 12.388 35.6863 12.028L36.1903 11.002C36.6343 11.35 37.1143 11.608 37.6303 11.776C38.1583 11.944 38.7043 12.028 39.2683 12.028C39.9883 12.028 40.5283 11.902 40.8883 11.65C41.2603 11.386 41.4463 11.026 41.4463 10.57C41.4463 10.222 41.3263 9.946 41.0863 9.742C40.8583 9.526 40.4803 9.358 39.9523 9.238L38.2783 8.896C37.5103 8.728 36.9343 8.446 36.5503 8.05C36.1663 7.642 35.9743 7.126 35.9743 6.502C35.9743 5.974 36.1123 5.512 36.3883 5.116C36.6643 4.708 37.0663 4.39 37.5943 4.162C38.1223 3.922 38.7403 3.802 39.4483 3.802C40.1083 3.802 40.7143 3.904 41.2663 4.108C41.8303 4.3 42.2983 4.582 42.6703 4.954L42.1483 5.962C41.7883 5.614 41.3743 5.356 40.9063 5.188C40.4503 5.008 39.9763 4.918 39.4843 4.918C38.7763 4.918 38.2423 5.062 37.8823 5.35C37.5343 5.626 37.3603 5.992 37.3603 6.448C37.3603 6.796 37.4683 7.084 37.6843 7.312C37.9123 7.528 38.2603 7.69 38.7283 7.798L40.4023 8.14C41.2183 8.32 41.8243 8.602 42.2203 8.986C42.6283 9.358 42.8323 9.862 42.8323 10.498C42.8323 11.038 42.6823 11.512 42.3823 11.92C42.0823 12.316 41.6623 12.622 41.1223 12.838C40.5943 13.054 39.9703 13.162 39.2503 13.162Z" fill="#1F1534"/>
</svg>
