<svg width="108" height="15" viewBox="0 0 108 15" fill="none" xmlns="http://www.w3.org/2000/svg">
<path d="M0.584 14V1.31H8.504V2.534H2.078V6.98H8.108V8.204H2.078V14H0.584ZM10.5294 14V4.964H11.9874V14H10.5294ZM10.3494 2.912V1.274H12.1494V2.912H10.3494ZM14.8185 14V7.052C14.8185 6.716 14.8005 6.374 14.7645 6.026C14.7405 5.666 14.7105 5.312 14.6745 4.964H16.0785L16.2585 6.944H16.0425C16.3065 6.248 16.7265 5.72 17.3025 5.36C17.8905 4.988 18.5685 4.802 19.3365 4.802C20.4045 4.802 21.2085 5.09 21.7485 5.666C22.3005 6.23 22.5765 7.124 22.5765 8.348V14H21.1185V8.438C21.1185 7.586 20.9445 6.968 20.5965 6.584C20.2605 6.188 19.7325 5.99 19.0125 5.99C18.1725 5.99 17.5065 6.248 17.0145 6.764C16.5225 7.28 16.2765 7.97 16.2765 8.834V14H14.8185ZM28.7854 14.162C27.9934 14.162 27.2974 13.976 26.6974 13.604C26.0974 13.22 25.6294 12.68 25.2934 11.984C24.9694 11.288 24.8074 10.454 24.8074 9.482C24.8074 8.498 24.9694 7.658 25.2934 6.962C25.6294 6.266 26.0974 5.732 26.6974 5.36C27.2974 4.988 27.9934 4.802 28.7854 4.802C29.6014 4.802 30.3034 5.006 30.8914 5.414C31.4914 5.822 31.8934 6.374 32.0974 7.07H31.8814V0.751999H33.3394V14H31.8994V11.84H32.0974C31.9054 12.56 31.5094 13.13 30.9094 13.55C30.3094 13.958 29.6014 14.162 28.7854 14.162ZM29.0914 12.974C29.9434 12.974 30.6274 12.68 31.1434 12.092C31.6594 11.492 31.9174 10.622 31.9174 9.482C31.9174 8.33 31.6594 7.46 31.1434 6.872C30.6274 6.272 29.9434 5.972 29.0914 5.972C28.2394 5.972 27.5554 6.272 27.0394 6.872C26.5354 7.46 26.2834 8.33 26.2834 9.482C26.2834 10.622 26.5354 11.492 27.0394 12.092C27.5554 12.68 28.2394 12.974 29.0914 12.974ZM44.2897 14.162C43.4857 14.162 42.7837 13.976 42.1837 13.604C41.5837 13.22 41.1157 12.68 40.7797 11.984C40.4557 11.288 40.2937 10.454 40.2937 9.482C40.2937 8.498 40.4557 7.658 40.7797 6.962C41.1157 6.266 41.5837 5.732 42.1837 5.36C42.7837 4.988 43.4857 4.802 44.2897 4.802C45.1057 4.802 45.8077 5.012 46.3957 5.432C46.9957 5.84 47.3917 6.398 47.5837 7.106H47.3677L47.5657 4.964H48.9697C48.9337 5.312 48.8977 5.666 48.8617 6.026C48.8377 6.374 48.8257 6.716 48.8257 7.052V14H47.3677V11.876H47.5657C47.3737 12.584 46.9777 13.142 46.3777 13.55C45.7777 13.958 45.0817 14.162 44.2897 14.162ZM44.5777 12.974C45.4417 12.974 46.1257 12.68 46.6297 12.092C47.1337 11.492 47.3857 10.622 47.3857 9.482C47.3857 8.33 47.1337 7.46 46.6297 6.872C46.1257 6.272 45.4417 5.972 44.5777 5.972C43.7257 5.972 43.0417 6.272 42.5257 6.872C42.0217 7.46 41.7697 8.33 41.7697 9.482C41.7697 10.622 42.0217 11.492 42.5257 12.092C43.0417 12.68 43.7257 12.974 44.5777 12.974ZM59.758 14.162C58.966 14.162 58.27 13.976 57.67 13.604C57.07 13.22 56.602 12.68 56.266 11.984C55.942 11.288 55.78 10.454 55.78 9.482C55.78 8.498 55.942 7.658 56.266 6.962C56.602 6.266 57.07 5.732 57.67 5.36C58.27 4.988 58.966 4.802 59.758 4.802C60.574 4.802 61.276 5.006 61.864 5.414C62.464 5.822 62.866 6.374 63.07 7.07H62.854V0.751999H64.312V14H62.872V11.84H63.07C62.878 12.56 62.482 13.13 61.882 13.55C61.282 13.958 60.574 14.162 59.758 14.162ZM60.064 12.974C60.916 12.974 61.6 12.68 62.116 12.092C62.632 11.492 62.89 10.622 62.89 9.482C62.89 8.33 62.632 7.46 62.116 6.872C61.6 6.272 60.916 5.972 60.064 5.972C59.212 5.972 58.528 6.272 58.012 6.872C57.508 7.46 57.256 8.33 57.256 9.482C57.256 10.622 57.508 11.492 58.012 12.092C58.528 12.68 59.212 12.974 60.064 12.974ZM70.839 14.162C69.975 14.162 69.219 13.976 68.571 13.604C67.935 13.22 67.443 12.68 67.095 11.984C66.747 11.276 66.573 10.442 66.573 9.482C66.573 8.51 66.747 7.676 67.095 6.98C67.443 6.284 67.935 5.75 68.571 5.378C69.219 4.994 69.975 4.802 70.839 4.802C71.715 4.802 72.471 4.994 73.107 5.378C73.755 5.75 74.253 6.284 74.601 6.98C74.961 7.676 75.141 8.51 75.141 9.482C75.141 10.442 74.961 11.276 74.601 11.984C74.253 12.68 73.755 13.22 73.107 13.604C72.471 13.976 71.715 14.162 70.839 14.162ZM70.839 12.974C71.703 12.974 72.387 12.68 72.891 12.092C73.395 11.492 73.647 10.622 73.647 9.482C73.647 8.33 73.389 7.46 72.873 6.872C72.369 6.272 71.691 5.972 70.839 5.972C69.987 5.972 69.309 6.272 68.805 6.872C68.301 7.46 68.049 8.33 68.049 9.482C68.049 10.622 68.301 11.492 68.805 12.092C69.309 12.68 69.987 12.974 70.839 12.974ZM81.2122 14.162C80.3242 14.162 79.5502 13.97 78.8902 13.586C78.2422 13.202 77.7382 12.656 77.3782 11.948C77.0302 11.24 76.8562 10.4 76.8562 9.428C76.8562 8.444 77.0362 7.61 77.3962 6.926C77.7562 6.23 78.2602 5.702 78.9082 5.342C79.5682 4.982 80.3362 4.802 81.2122 4.802C81.7882 4.802 82.3462 4.904 82.8862 5.108C83.4382 5.312 83.8942 5.6 84.2542 5.972L83.7322 7.016C83.3722 6.668 82.9762 6.41 82.5442 6.242C82.1242 6.074 81.7102 5.99 81.3022 5.99C80.3662 5.99 79.6402 6.284 79.1242 6.872C78.6082 7.46 78.3502 8.318 78.3502 9.446C78.3502 10.562 78.6082 11.426 79.1242 12.038C79.6402 12.65 80.3662 12.956 81.3022 12.956C81.6982 12.956 82.1062 12.878 82.5262 12.722C82.9582 12.566 83.3602 12.308 83.7322 11.948L84.2542 12.974C83.8822 13.358 83.4202 13.652 82.8682 13.856C82.3162 14.06 81.7642 14.162 81.2122 14.162ZM89.5303 14.162C88.6423 14.162 87.9643 13.91 87.4963 13.406C87.0283 12.89 86.7943 12.116 86.7943 11.084V6.098H85.0303V4.964H86.7943V2.498L88.2523 2.084V4.964H90.8443V6.098H88.2523V10.922C88.2523 11.642 88.3723 12.158 88.6123 12.47C88.8643 12.77 89.2363 12.92 89.7283 12.92C89.9563 12.92 90.1603 12.902 90.3403 12.866C90.5203 12.818 90.6823 12.764 90.8263 12.704V13.928C90.6583 14 90.4543 14.054 90.2143 14.09C89.9863 14.138 89.7583 14.162 89.5303 14.162ZM96.2394 14.162C95.3754 14.162 94.6194 13.976 93.9714 13.604C93.3354 13.22 92.8434 12.68 92.4954 11.984C92.1474 11.276 91.9734 10.442 91.9734 9.482C91.9734 8.51 92.1474 7.676 92.4954 6.98C92.8434 6.284 93.3354 5.75 93.9714 5.378C94.6194 4.994 95.3754 4.802 96.2394 4.802C97.1154 4.802 97.8714 4.994 98.5074 5.378C99.1554 5.75 99.6534 6.284 100.001 6.98C100.361 7.676 100.541 8.51 100.541 9.482C100.541 10.442 100.361 11.276 100.001 11.984C99.6534 12.68 99.1554 13.22 98.5074 13.604C97.8714 13.976 97.1154 14.162 96.2394 14.162ZM96.2394 12.974C97.1034 12.974 97.7874 12.68 98.2914 12.092C98.7954 11.492 99.0474 10.622 99.0474 9.482C99.0474 8.33 98.7894 7.46 98.2734 6.872C97.7694 6.272 97.0914 5.972 96.2394 5.972C95.3874 5.972 94.7094 6.272 94.2054 6.872C93.7014 7.46 93.4494 8.33 93.4494 9.482C93.4494 10.622 93.7014 11.492 94.2054 12.092C94.7094 12.68 95.3874 12.974 96.2394 12.974ZM102.779 14V7.142C102.779 6.782 102.767 6.416 102.743 6.044C102.731 5.672 102.707 5.312 102.671 4.964H104.075L104.255 7.16L104.003 7.178C104.123 6.638 104.333 6.194 104.633 5.846C104.933 5.498 105.287 5.24 105.695 5.072C106.103 4.892 106.529 4.802 106.973 4.802C107.153 4.802 107.309 4.808 107.441 4.82C107.585 4.832 107.717 4.862 107.837 4.91L107.819 6.206C107.639 6.146 107.471 6.11 107.315 6.098C107.171 6.074 107.003 6.062 106.811 6.062C106.283 6.062 105.821 6.188 105.425 6.44C105.041 6.692 104.747 7.016 104.543 7.412C104.351 7.808 104.255 8.228 104.255 8.672V14H102.779Z" fill="#1F1534"/>
</svg>
