<svg width="103" height="15" viewBox="0 0 103 15" fill="none" xmlns="http://www.w3.org/2000/svg">
<path d="M4.662 14V2.57H0.18V1.31H10.62V2.57H6.156V14H4.662ZM14.9282 14.162C13.5122 14.162 12.3962 13.754 11.5802 12.938C10.7642 12.11 10.3562 10.964 10.3562 9.5C10.3562 8.552 10.5362 7.73 10.8962 7.034C11.2562 6.326 11.7602 5.78 12.4082 5.396C13.0562 5 13.8002 4.802 14.6402 4.802C15.4682 4.802 16.1642 4.976 16.7282 5.324C17.2922 5.672 17.7242 6.17 18.0242 6.818C18.3242 7.454 18.4742 8.21 18.4742 9.086V9.626H11.4722V8.708H17.5202L17.2142 8.942C17.2142 7.982 16.9982 7.232 16.5662 6.692C16.1342 6.152 15.4922 5.882 14.6402 5.882C13.7402 5.882 13.0382 6.2 12.5342 6.836C12.0302 7.46 11.7782 8.306 11.7782 9.374V9.536C11.7782 10.664 12.0542 11.522 12.6062 12.11C13.1702 12.686 13.9562 12.974 14.9642 12.974C15.5042 12.974 16.0082 12.896 16.4762 12.74C16.9562 12.572 17.4122 12.302 17.8442 11.93L18.3482 12.956C17.9522 13.34 17.4482 13.64 16.8362 13.856C16.2362 14.06 15.6002 14.162 14.9282 14.162ZM23.7112 14.162C22.9912 14.162 22.3192 14.066 21.6952 13.874C21.0712 13.67 20.5552 13.388 20.1472 13.028L20.6512 12.002C21.0952 12.35 21.5752 12.608 22.0912 12.776C22.6192 12.944 23.1652 13.028 23.7292 13.028C24.4492 13.028 24.9892 12.902 25.3492 12.65C25.7212 12.386 25.9072 12.026 25.9072 11.57C25.9072 11.222 25.7872 10.946 25.5472 10.742C25.3192 10.526 24.9412 10.358 24.4132 10.238L22.7392 9.896C21.9712 9.728 21.3952 9.446 21.0112 9.05C20.6272 8.642 20.4352 8.126 20.4352 7.502C20.4352 6.974 20.5732 6.512 20.8492 6.116C21.1252 5.708 21.5272 5.39 22.0552 5.162C22.5832 4.922 23.2012 4.802 23.9092 4.802C24.5692 4.802 25.1752 4.904 25.7272 5.108C26.2912 5.3 26.7592 5.582 27.1312 5.954L26.6092 6.962C26.2492 6.614 25.8352 6.356 25.3672 6.188C24.9112 6.008 24.4372 5.918 23.9452 5.918C23.2372 5.918 22.7032 6.062 22.3432 6.35C21.9952 6.626 21.8212 6.992 21.8212 7.448C21.8212 7.796 21.9292 8.084 22.1452 8.312C22.3732 8.528 22.7212 8.69 23.1892 8.798L24.8632 9.14C25.6792 9.32 26.2852 9.602 26.6812 9.986C27.0892 10.358 27.2932 10.862 27.2932 11.498C27.2932 12.038 27.1432 12.512 26.8432 12.92C26.5432 13.316 26.1232 13.622 25.5832 13.838C25.0552 14.054 24.4312 14.162 23.7112 14.162ZM32.751 14.162C31.863 14.162 31.185 13.91 30.717 13.406C30.249 12.89 30.015 12.116 30.015 11.084V6.098H28.251V4.964H30.015V2.498L31.473 2.084V4.964H34.065V6.098H31.473V10.922C31.473 11.642 31.593 12.158 31.833 12.47C32.085 12.77 32.457 12.92 32.949 12.92C33.177 12.92 33.381 12.902 33.561 12.866C33.741 12.818 33.903 12.764 34.047 12.704V13.928C33.879 14 33.675 14.054 33.435 14.09C33.207 14.138 32.979 14.162 32.751 14.162ZM35.84 14V4.964H37.298V14H35.84ZM35.66 2.912V1.274H37.46V2.912H35.66ZM40.129 14V7.052C40.129 6.716 40.111 6.374 40.075 6.026C40.051 5.666 40.021 5.312 39.985 4.964H41.389L41.569 6.944H41.353C41.593 6.26 41.971 5.732 42.487 5.36C43.015 4.988 43.651 4.802 44.395 4.802C45.151 4.802 45.763 4.982 46.231 5.342C46.711 5.702 47.035 6.26 47.203 7.016H46.933C47.161 6.332 47.563 5.792 48.139 5.396C48.715 5 49.387 4.802 50.155 4.802C51.151 4.802 51.901 5.09 52.405 5.666C52.909 6.23 53.161 7.124 53.161 8.348V14H51.703V8.438C51.703 7.586 51.553 6.968 51.253 6.584C50.953 6.188 50.473 5.99 49.813 5.99C49.057 5.99 48.457 6.254 48.013 6.782C47.581 7.298 47.365 7.994 47.365 8.87V14H45.907V8.438C45.907 7.586 45.757 6.968 45.457 6.584C45.157 6.188 44.677 5.99 44.017 5.99C43.261 5.99 42.667 6.254 42.235 6.782C41.803 7.298 41.587 7.994 41.587 8.87V14H40.129ZM59.6398 14.162C58.7758 14.162 58.0198 13.976 57.3718 13.604C56.7358 13.22 56.2438 12.68 55.8958 11.984C55.5478 11.276 55.3738 10.442 55.3738 9.482C55.3738 8.51 55.5478 7.676 55.8958 6.98C56.2438 6.284 56.7358 5.75 57.3718 5.378C58.0198 4.994 58.7758 4.802 59.6398 4.802C60.5158 4.802 61.2718 4.994 61.9078 5.378C62.5558 5.75 63.0538 6.284 63.4018 6.98C63.7618 7.676 63.9418 8.51 63.9418 9.482C63.9418 10.442 63.7618 11.276 63.4018 11.984C63.0538 12.68 62.5558 13.22 61.9078 13.604C61.2718 13.976 60.5158 14.162 59.6398 14.162ZM59.6398 12.974C60.5038 12.974 61.1878 12.68 61.6918 12.092C62.1958 11.492 62.4478 10.622 62.4478 9.482C62.4478 8.33 62.1898 7.46 61.6738 6.872C61.1698 6.272 60.4918 5.972 59.6398 5.972C58.7878 5.972 58.1098 6.272 57.6058 6.872C57.1018 7.46 56.8498 8.33 56.8498 9.482C56.8498 10.622 57.1018 11.492 57.6058 12.092C58.1098 12.68 58.7878 12.974 59.6398 12.974ZM66.215 14V7.052C66.215 6.716 66.197 6.374 66.161 6.026C66.137 5.666 66.107 5.312 66.071 4.964H67.475L67.655 6.944H67.439C67.703 6.248 68.123 5.72 68.699 5.36C69.287 4.988 69.965 4.802 70.733 4.802C71.801 4.802 72.605 5.09 73.145 5.666C73.697 6.23 73.973 7.124 73.973 8.348V14H72.515V8.438C72.515 7.586 72.341 6.968 71.993 6.584C71.657 6.188 71.129 5.99 70.409 5.99C69.569 5.99 68.903 6.248 68.411 6.764C67.919 7.28 67.673 7.97 67.673 8.834V14H66.215ZM76.7618 14V4.964H78.2198V14H76.7618ZM76.5818 2.912V1.274H78.3818V2.912H76.5818ZM84.4889 14.162C83.6849 14.162 82.9829 13.976 82.3829 13.604C81.7829 13.22 81.3149 12.68 80.9789 11.984C80.6549 11.288 80.4929 10.454 80.4929 9.482C80.4929 8.498 80.6549 7.658 80.9789 6.962C81.3149 6.266 81.7829 5.732 82.3829 5.36C82.9829 4.988 83.6849 4.802 84.4889 4.802C85.3049 4.802 86.0069 5.012 86.5949 5.432C87.1949 5.84 87.5909 6.398 87.7829 7.106H87.5669L87.7649 4.964H89.1689C89.1329 5.312 89.0969 5.666 89.0609 6.026C89.0369 6.374 89.0249 6.716 89.0249 7.052V14H87.5669V11.876H87.7649C87.5729 12.584 87.1769 13.142 86.5769 13.55C85.9769 13.958 85.2809 14.162 84.4889 14.162ZM84.7769 12.974C85.6409 12.974 86.3249 12.68 86.8289 12.092C87.3329 11.492 87.5849 10.622 87.5849 9.482C87.5849 8.33 87.3329 7.46 86.8289 6.872C86.3249 6.272 85.6409 5.972 84.7769 5.972C83.9249 5.972 83.2409 6.272 82.7249 6.872C82.2209 7.46 81.9689 8.33 81.9689 9.482C81.9689 10.622 82.2209 11.492 82.7249 12.092C83.2409 12.68 83.9249 12.974 84.7769 12.974ZM91.8439 14V0.751999H93.3019V14H91.8439ZM99.1389 14.162C98.4189 14.162 97.7469 14.066 97.1229 13.874C96.4989 13.67 95.9829 13.388 95.5749 13.028L96.0789 12.002C96.5229 12.35 97.0029 12.608 97.5189 12.776C98.0469 12.944 98.5929 13.028 99.1569 13.028C99.8769 13.028 100.417 12.902 100.777 12.65C101.149 12.386 101.335 12.026 101.335 11.57C101.335 11.222 101.215 10.946 100.975 10.742C100.747 10.526 100.369 10.358 99.8409 10.238L98.1669 9.896C97.3989 9.728 96.8229 9.446 96.4389 9.05C96.0549 8.642 95.8629 8.126 95.8629 7.502C95.8629 6.974 96.0009 6.512 96.2769 6.116C96.5529 5.708 96.9549 5.39 97.4829 5.162C98.0109 4.922 98.6289 4.802 99.3369 4.802C99.9969 4.802 100.603 4.904 101.155 5.108C101.719 5.3 102.187 5.582 102.559 5.954L102.037 6.962C101.677 6.614 101.263 6.356 100.795 6.188C100.339 6.008 99.8649 5.918 99.3729 5.918C98.6649 5.918 98.1309 6.062 97.7709 6.35C97.4229 6.626 97.2489 6.992 97.2489 7.448C97.2489 7.796 97.3569 8.084 97.5729 8.312C97.8009 8.528 98.1489 8.69 98.6169 8.798L100.291 9.14C101.107 9.32 101.713 9.602 102.109 9.986C102.517 10.358 102.721 10.862 102.721 11.498C102.721 12.038 102.571 12.512 102.271 12.92C101.971 13.316 101.551 13.622 101.011 13.838C100.483 14.054 99.8589 14.162 99.1389 14.162Z" fill="#1F1534"/>
</svg>
